<svg width="512" height="512" viewBox="0 0 512 512" fill="none" xmlns="http://www.w3.org/2000/svg">
<circle cx="256" cy="256" r="248" fill="#553C9A"/>
<ellipse cx="265.479" cy="204.47" rx="20.7965" ry="20.7965" transform="rotate(-135 265.479 204.47)" fill="#81E6D9"/>
<circle cx="265.892" cy="129.803" r="6.93217" transform="rotate(-135 265.892 129.803)" fill="#81E6D9"/>
<circle cx="245.873" cy="155.452" r="11.2235" transform="rotate(-135 245.873 155.452)" fill="#81E6D9"/>
<ellipse cx="284.139" cy="165.214" rx="12.874" ry="13.2041" transform="rotate(-135 284.139 165.214)" fill="#81E6D9"/>
<path fill-rule="evenodd" clip-rule="evenodd" d="M383 272V327H363C356.852 327 351.063 328.541 346 331.259V252C346 263.046 354.954 272 366 272H383Z" fill="#B794F4"/>
<path fill-rule="evenodd" clip-rule="evenodd" d="M361 327.055V271.37C362.598 271.781 364.274 272 366 272H383V327H363C362.329 327 361.662 327.019 361 327.055Z" fill="#D6BCFA"/>
<path fill-rule="evenodd" clip-rule="evenodd" d="M162 290.897C162 248.98 195.98 215 237.897 215H346V331.259C334.691 337.329 327 349.266 327 363H310C310 343.118 293.882 327 274 327H270C250.118 327 234 343.118 234 363C194.226 362.945 162 330.684 162 290.897ZM234 363C234.034 363 234.068 363 234.103 363H234Z" fill="#D6BCFA"/>
<path d="M308 238H355V214.5C355 201.521 344.479 191 331.5 191V191C318.521 191 308 201.521 308 214.5V238Z" fill="#9F7AEA"/>
<circle cx="318.5" cy="280.5" r="8.5" fill="#6B46C1"/>
<path fill-rule="evenodd" clip-rule="evenodd" d="M106 293.5C106 308.688 118.312 321 133.5 321H134V303H133.5C128.253 303 124 298.747 124 293.5C124 288.253 128.253 284 133.5 284H134.5C139.579 284 143.727 287.986 143.987 293H161.996C161.729 278.043 149.521 266 134.5 266H133.5C118.312 266 106 278.312 106 293.5Z" fill="#9F7AEA"/>
</svg>
