<svg width="1241" height="342" viewBox="0 0 1241 342" fill="none" xmlns="http://www.w3.org/2000/svg">
<rect width="1241" height="342" rx="171" fill="#D6BCFA"/>
<circle cx="315.82" cy="183.293" r="4.70344" transform="rotate(-45 315.82 183.293)" fill="#6B46C1"/>
<circle cx="291.431" cy="173.157" r="7.6151" transform="rotate(-45 291.431 173.157)" fill="#6B46C1"/>
<ellipse cx="258.172" cy="186.46" rx="14.1103" ry="14.1103" transform="rotate(-45 258.172 186.46)" fill="#6B46C1"/>
<ellipse cx="294.123" cy="205.307" rx="8.73497" ry="8.95894" transform="rotate(-45 294.123 205.307)" fill="#6B46C1"/>
<path d="M224.522 136.748C225.827 131.196 230.575 127.12 236.247 126.732C269.435 124.461 291.332 124.513 323.825 126.734C329.499 127.122 334.25 131.198 335.555 136.752L339.426 153.226C340.015 155.732 336.949 157.566 334.869 156.058C326.963 150.326 321.313 150.199 314.483 157.098C312.307 159.297 308.791 159.56 306.374 157.631C298.411 151.278 292.47 151.096 283.828 158.106C281.638 159.882 278.473 159.847 276.299 158.052C268.221 151.382 262.245 151.554 253.692 157.934C251.272 159.739 247.867 159.38 245.763 157.213C239.419 150.678 233.792 150.315 225.062 156.414C222.982 157.867 219.992 156.026 220.574 153.551L224.522 136.748Z" fill="#6B46C1"/>
<path d="M996.482 153.933H1011.48V203.933H996.432L995.732 199.433C994.499 201.167 992.932 202.567 991.032 203.633C989.165 204.7 986.982 205.233 984.482 205.233C980.749 205.233 977.249 204.533 973.982 203.133C970.749 201.733 967.899 199.8 965.432 197.333C962.965 194.833 961.032 191.967 959.632 188.733C958.265 185.467 957.582 181.967 957.582 178.233C957.582 174.667 958.232 171.333 959.532 168.233C960.832 165.133 962.649 162.417 964.982 160.083C967.349 157.717 970.065 155.867 973.132 154.533C976.232 153.2 979.549 152.533 983.082 152.533C985.949 152.533 988.549 153.133 990.882 154.333C993.249 155.5 995.349 156.967 997.182 158.733L996.482 153.933ZM984.082 190.833C986.149 190.833 988.032 190.3 989.732 189.233C991.432 188.167 992.782 186.733 993.782 184.933C994.782 183.133 995.282 181.133 995.282 178.933C995.282 176.733 994.782 174.733 993.782 172.933C992.782 171.133 991.432 169.7 989.732 168.633C988.032 167.567 986.149 167.033 984.082 167.033C982.015 167.033 980.132 167.567 978.432 168.633C976.765 169.7 975.432 171.133 974.432 172.933C973.465 174.733 972.982 176.733 972.982 178.933C972.982 181.133 973.482 183.133 974.482 184.933C975.482 186.733 976.815 188.167 978.482 189.233C980.182 190.3 982.049 190.833 984.082 190.833Z" fill="#6B46C1"/>
<path d="M934.668 128.933H949.668V203.933H934.668V199.333C933.135 201.067 931.301 202.483 929.168 203.583C927.068 204.683 924.668 205.233 921.968 205.233C918.335 205.233 914.935 204.55 911.768 203.183C908.601 201.817 905.801 199.933 903.368 197.533C900.968 195.1 899.085 192.3 897.718 189.133C896.351 185.967 895.668 182.567 895.668 178.933C895.668 175.3 896.351 171.9 897.718 168.733C899.085 165.567 900.968 162.783 903.368 160.383C905.801 157.95 908.601 156.05 911.768 154.683C914.935 153.317 918.335 152.633 921.968 152.633C924.668 152.633 927.068 153.183 929.168 154.283C931.301 155.35 933.135 156.767 934.668 158.533V128.933ZM922.168 190.833C924.235 190.833 926.118 190.3 927.818 189.233C929.518 188.167 930.868 186.733 931.868 184.933C932.868 183.133 933.368 181.133 933.368 178.933C933.368 176.733 932.868 174.733 931.868 172.933C930.868 171.133 929.518 169.7 927.818 168.633C926.118 167.567 924.235 167.033 922.168 167.033C920.101 167.033 918.218 167.567 916.518 168.633C914.851 169.7 913.518 171.133 912.518 172.933C911.551 174.733 911.068 176.733 911.068 178.933C911.068 181.133 911.568 183.133 912.568 184.933C913.568 186.733 914.901 188.167 916.568 189.233C918.268 190.3 920.135 190.833 922.168 190.833Z" fill="#6B46C1"/>
<path d="M865.688 205.233C861.088 205.233 856.887 204.05 853.087 201.683C849.321 199.317 846.304 196.15 844.038 192.183C841.804 188.183 840.688 183.767 840.688 178.933C840.688 175.267 841.338 171.85 842.638 168.683C843.938 165.483 845.721 162.683 847.987 160.283C850.287 157.85 852.954 155.95 855.987 154.583C859.021 153.217 862.254 152.533 865.688 152.533C870.288 152.533 874.471 153.717 878.237 156.083C882.037 158.45 885.054 161.633 887.287 165.633C889.554 169.633 890.688 174.067 890.688 178.933C890.688 182.567 890.037 185.967 888.737 189.133C887.437 192.3 885.638 195.1 883.338 197.533C881.071 199.933 878.421 201.817 875.388 203.183C872.388 204.55 869.154 205.233 865.688 205.233ZM865.688 190.233C867.588 190.233 869.288 189.717 870.788 188.683C872.321 187.65 873.521 186.283 874.388 184.583C875.254 182.85 875.688 180.967 875.688 178.933C875.688 176.833 875.221 174.917 874.288 173.183C873.388 171.45 872.171 170.083 870.638 169.083C869.138 168.05 867.488 167.533 865.688 167.533C863.821 167.533 862.121 168.067 860.587 169.133C859.087 170.167 857.887 171.55 856.987 173.283C856.121 175.017 855.688 176.9 855.688 178.933C855.688 181.067 856.138 182.983 857.038 184.683C857.971 186.383 859.188 187.733 860.688 188.733C862.221 189.733 863.888 190.233 865.688 190.233Z" fill="#6B46C1"/>
<path d="M808.155 205.233C804.221 205.233 800.455 204.617 796.855 203.383C793.255 202.117 790.105 200.317 787.405 197.983C784.705 195.617 782.755 192.8 781.555 189.533L795.655 184.333C795.988 185.3 796.721 186.233 797.855 187.133C799.021 188.033 800.488 188.783 802.255 189.383C804.021 189.95 805.988 190.233 808.155 190.233C810.155 190.233 812.038 189.95 813.805 189.383C815.571 188.783 817.005 187.967 818.105 186.933C819.205 185.9 819.755 184.7 819.755 183.333C819.755 181.933 819.171 180.783 818.005 179.883C816.871 178.95 815.405 178.217 813.605 177.683C811.838 177.117 810.021 176.7 808.155 176.433C803.088 175.7 798.538 174.5 794.505 172.833C790.505 171.133 787.338 168.8 785.005 165.833C782.705 162.867 781.555 159.1 781.555 154.533C781.555 150.167 782.788 146.35 785.255 143.083C787.721 139.783 790.971 137.217 795.005 135.383C799.071 133.55 803.455 132.633 808.155 132.633C812.088 132.633 815.855 133.267 819.455 134.533C823.088 135.767 826.255 137.567 828.955 139.933C831.655 142.3 833.588 145.133 834.755 148.433L820.655 153.533C820.321 152.567 819.571 151.65 818.405 150.783C817.271 149.883 815.821 149.15 814.055 148.583C812.288 148.017 810.321 147.733 808.155 147.733C806.221 147.7 804.371 147.983 802.605 148.583C800.838 149.183 799.388 150 798.255 151.033C797.121 152.067 796.555 153.233 796.555 154.533C796.555 156.333 797.088 157.683 798.155 158.583C799.221 159.45 800.621 160.067 802.355 160.433C804.121 160.8 806.055 161.133 808.155 161.433C812.955 162.133 817.371 163.383 821.405 165.183C825.438 166.983 828.671 169.383 831.105 172.383C833.538 175.383 834.755 179.033 834.755 183.333C834.755 187.7 833.521 191.533 831.055 194.833C828.621 198.1 825.388 200.65 821.355 202.483C817.321 204.317 812.921 205.233 808.155 205.233Z" fill="#6B46C1"/>
<path d="M749.508 168.933H741.008V203.933H726.008V168.933H719.508V153.933H726.008V138.233H741.008V153.933H749.508V168.933Z" fill="#6B46C1"/>
<path d="M712.024 171.983V203.933H697.024V176.183C697.024 174.617 696.641 173.2 695.874 171.933C695.108 170.633 694.091 169.617 692.824 168.883C691.558 168.117 690.141 167.733 688.574 167.733C687.008 167.733 685.574 168.117 684.274 168.883C683.008 169.617 681.991 170.633 681.224 171.933C680.491 173.2 680.124 174.617 680.124 176.183V203.933H665.124L665.074 128.933H680.074L680.124 157.083C681.791 155.65 683.691 154.533 685.824 153.733C687.958 152.933 690.208 152.533 692.574 152.533C696.174 152.533 699.441 153.417 702.374 155.183C705.308 156.917 707.641 159.25 709.374 162.183C711.141 165.117 712.024 168.383 712.024 171.983Z" fill="#6B46C1"/>
<path d="M638.079 153.933H653.079V204.433C653.079 208.233 652.312 211.633 650.779 214.633C649.279 217.667 647.212 220.25 644.579 222.383C641.946 224.517 638.912 226.133 635.479 227.233C632.079 228.367 628.479 228.933 624.679 228.933C621.146 228.933 617.762 228.25 614.529 226.883C611.296 225.55 608.412 223.683 605.879 221.283C603.346 218.883 601.346 216.1 599.879 212.933L613.579 206.733C614.279 208.233 615.196 209.5 616.329 210.533C617.462 211.6 618.746 212.417 620.179 212.983C621.612 213.55 623.112 213.833 624.679 213.833C626.412 213.833 628.079 213.65 629.679 213.283C631.279 212.917 632.712 212.35 633.979 211.583C635.246 210.817 636.246 209.833 636.979 208.633C637.712 207.467 638.079 206.067 638.079 204.433V199.533C636.579 201.233 634.796 202.617 632.729 203.683C630.696 204.717 628.346 205.233 625.679 205.233C622.046 205.233 618.646 204.55 615.479 203.183C612.312 201.817 609.512 199.933 607.079 197.533C604.679 195.1 602.796 192.3 601.429 189.133C600.062 185.967 599.379 182.567 599.379 178.933C599.379 175.3 600.062 171.9 601.429 168.733C602.796 165.567 604.679 162.783 607.079 160.383C609.512 157.95 612.312 156.05 615.479 154.683C618.646 153.317 622.046 152.633 625.679 152.633C628.346 152.633 630.696 153.167 632.729 154.233C634.796 155.267 636.579 156.633 638.079 158.333V153.933ZM625.879 190.833C627.946 190.833 629.829 190.3 631.529 189.233C633.229 188.167 634.579 186.733 635.579 184.933C636.579 183.133 637.079 181.133 637.079 178.933C637.079 176.733 636.579 174.733 635.579 172.933C634.579 171.133 633.229 169.7 631.529 168.633C629.829 167.567 627.946 167.033 625.879 167.033C623.846 167.033 621.979 167.567 620.279 168.633C618.612 169.7 617.279 171.133 616.279 172.933C615.279 174.733 614.779 176.733 614.779 178.933C614.779 181.133 615.279 183.133 616.279 184.933C617.279 186.733 618.612 188.167 620.279 189.233C621.979 190.3 623.846 190.833 625.879 190.833Z" fill="#6B46C1"/>
<path d="M546.473 185.783V153.933H561.473V181.583C561.473 183.15 561.856 184.583 562.623 185.883C563.389 187.15 564.406 188.167 565.673 188.933C566.973 189.667 568.389 190.033 569.923 190.033C571.489 190.033 572.906 189.667 574.173 188.933C575.473 188.167 576.489 187.15 577.223 185.883C577.989 184.583 578.373 183.15 578.373 181.583V153.933H593.373L593.423 203.933H578.423L578.373 200.683C576.706 202.117 574.806 203.233 572.673 204.033C570.539 204.833 568.289 205.233 565.923 205.233C562.356 205.233 559.089 204.367 556.123 202.633C553.189 200.867 550.839 198.517 549.073 195.583C547.339 192.65 546.473 189.383 546.473 185.783Z" fill="#6B46C1"/>
<path d="M517.445 205.233C512.845 205.233 508.645 204.05 504.845 201.683C501.079 199.317 498.062 196.15 495.795 192.183C493.562 188.183 492.445 183.767 492.445 178.933C492.445 175.267 493.095 171.85 494.395 168.683C495.695 165.483 497.479 162.683 499.745 160.283C502.045 157.85 504.712 155.95 507.745 154.583C510.779 153.217 514.012 152.533 517.445 152.533C522.045 152.533 526.229 153.717 529.995 156.083C533.795 158.45 536.812 161.633 539.045 165.633C541.312 169.633 542.445 174.067 542.445 178.933C542.445 182.567 541.795 185.967 540.495 189.133C539.195 192.3 537.395 195.1 535.095 197.533C532.829 199.933 530.179 201.817 527.145 203.183C524.145 204.55 520.912 205.233 517.445 205.233ZM517.445 190.233C519.345 190.233 521.045 189.717 522.545 188.683C524.079 187.65 525.279 186.283 526.145 184.583C527.012 182.85 527.445 180.967 527.445 178.933C527.445 176.833 526.979 174.917 526.045 173.183C525.145 171.45 523.929 170.083 522.395 169.083C520.895 168.05 519.245 167.533 517.445 167.533C515.579 167.533 513.879 168.067 512.345 169.133C510.845 170.167 509.645 171.55 508.745 173.283C507.879 175.017 507.445 176.9 507.445 178.933C507.445 181.067 507.895 182.983 508.795 184.683C509.729 186.383 510.945 187.733 512.445 188.733C513.979 189.733 515.645 190.233 517.445 190.233Z" fill="#6B46C1"/>
<path d="M486.438 171.983V203.933H471.438V176.183C471.438 174.617 471.055 173.2 470.288 171.933C469.522 170.633 468.505 169.617 467.238 168.883C465.972 168.117 464.555 167.733 462.988 167.733C461.422 167.733 459.988 168.117 458.688 168.883C457.422 169.617 456.405 170.633 455.638 171.933C454.905 173.2 454.538 174.617 454.538 176.183V203.933H439.538L439.488 128.933H454.488L454.538 157.083C456.205 155.65 458.105 154.533 460.238 153.733C462.372 152.933 464.622 152.533 466.988 152.533C470.588 152.533 473.855 153.417 476.788 155.183C479.722 156.917 482.055 159.25 483.788 162.183C485.555 165.117 486.438 168.383 486.438 171.983Z" fill="#6B46C1"/>
<path d="M429.5 133.933V148.933H409.5V203.933H394.5V148.933H374.5V133.933H429.5Z" fill="#6B46C1"/>
</svg>
