<svg width="1242" height="512" viewBox="0 0 1242 512" fill="none" xmlns="http://www.w3.org/2000/svg">
<g clip-path="url(#clip0_2378_416)">
<rect width="1241.21" height="512" rx="256" fill="#E6FFFA"/>
<ellipse cx="633.357" cy="199.39" rx="23.6495" ry="23.6495" transform="rotate(-135 633.357 199.39)" fill="#6B46C1"/>
<circle cx="633.826" cy="114.48" r="7.88315" transform="rotate(-135 633.826 114.48)" fill="#6B46C1"/>
<circle cx="611.061" cy="143.647" r="12.7632" transform="rotate(-135 611.061 143.647)" fill="#6B46C1"/>
<ellipse cx="654.577" cy="154.749" rx="14.6401" ry="15.0155" transform="rotate(-135 654.577 154.749)" fill="#6B46C1"/>
<path fill-rule="evenodd" clip-rule="evenodd" d="M767 276.184V379.668H767V338.729H744.256C737.264 338.729 730.682 340.482 724.924 343.572V253.44C724.924 266.001 735.107 276.184 747.668 276.184H767Z" fill="#81E6D9"/>
<path fill-rule="evenodd" clip-rule="evenodd" d="M741.982 338.791V275.468C743.799 275.936 745.705 276.184 747.668 276.184H767L767 338.729H744.256C743.493 338.729 742.735 338.75 741.982 338.791ZM741.982 379.668V379.668H767L767 379.668H741.982Z" fill="#319795"/>
<path fill-rule="evenodd" clip-rule="evenodd" d="M515.682 297.674C515.682 250.007 554.324 211.365 601.991 211.365H724.924V343.572C712.063 350.475 703.318 364.05 703.318 379.668H724.924V379.668H597.676C552.392 379.668 515.682 342.958 515.682 297.674ZM683.986 379.668H597.56C597.56 357.058 615.888 338.729 638.498 338.729H643.047C665.657 338.729 683.986 357.058 683.986 379.668Z" fill="#D6BCFA"/>
<path d="M681.711 237.52H735.159V210.796C735.159 196.037 723.194 184.072 708.435 184.072V184.072C693.676 184.072 681.711 196.037 681.711 210.796V237.52Z" fill="#319795"/>
<circle cx="693.651" cy="285.85" r="9.66607" fill="#6B46C1"/>
<path fill-rule="evenodd" clip-rule="evenodd" d="M452 300.633C452 317.905 466.001 331.906 483.273 331.906H483.841V311.437H483.273C477.306 311.437 472.469 306.6 472.469 300.633C472.469 294.667 477.306 289.83 483.273 289.83H484.41C490.186 289.83 494.903 294.363 495.198 300.065H515.677C515.374 283.056 501.491 269.361 484.41 269.361H483.273C466.001 269.361 452 283.362 452 300.633Z" fill="#319795"/>
</g>
<defs>
<clipPath id="clip0_2378_416">
<rect width="1242" height="512" fill="white"/>
</clipPath>
</defs>
</svg>
